<?xml version="1.0" encoding="UTF-8"?>
<svg version="1.1" xmlns="http://www.w3.org/2000/svg" width="500" height="500">
<path d="M0 0 C165 0 330 0 500 0 C500 165 500 330 500 500 C335 500 170 500 0 500 C0 335 0 170 0 0 Z " fill="#FEFEFE" transform="translate(0,0)"/>
<path d="M0 0 C1.34890885 -0.00644185 2.69781635 -0.01317119 4.04672241 -0.02017212 C6.86923452 -0.03210777 9.69162462 -0.0358571 12.51416016 -0.03466797 C16.0946124 -0.03446567 19.67426294 -0.06169046 23.25452614 -0.09621239 C26.04132526 -0.11868627 28.8279382 -0.12249924 31.61481857 -0.12144852 C33.56485661 -0.12489374 35.51483652 -0.1464336 37.4647522 -0.16854858 C50.47996134 -0.10278096 61.15670936 2.93729409 71.2109375 11.3359375 C71.93152344 11.93277344 72.65210938 12.52960938 73.39453125 13.14453125 C82.01963597 20.98701777 86.625208 31.74658401 87.41238403 43.2900238 C87.50708245 46.67647352 87.540493 50.0575388 87.546875 53.4453125 C87.5568602 55.31101898 87.5568602 55.31101898 87.56704712 57.2144165 C87.57713487 59.83661428 87.58186535 62.45883753 87.58154297 65.08105469 C87.58130035 69.05955197 87.62225346 73.03730926 87.66015625 77.015625 C87.66602692 79.57551708 87.66999464 82.13541438 87.671875 84.6953125 C87.68624603 85.8686615 87.70061707 87.0420105 87.71542358 88.25091553 C87.64028471 102.0639248 83.54688137 114.35912121 74.109375 124.62109375 C62.38291494 135.70529187 49.75278884 137.61835739 34.15625 137.64453125 C32.80539891 137.6556598 31.45455775 137.66805919 30.10372925 137.68165588 C24.41445751 137.73654123 18.72511966 137.76764998 13.03564453 137.79223633 C9.53673213 137.80825514 6.03815947 137.83861409 2.5394249 137.87700081 C0.58609184 137.89405251 -1.36736279 137.89470423 -3.32077026 137.8948822 C-19.22441667 138.06999696 -32.97199664 142.86883614 -44.6015625 153.9765625 C-53.15945926 163.20686544 -58.86538854 174.69816383 -59.203125 187.36328125 C-59.24179688 188.64912109 -59.28046875 189.93496094 -59.3203125 191.25976562 C-59.35175749 192.59765168 -59.38300509 193.93554239 -59.4140625 195.2734375 C-59.45230592 196.63869506 -59.4913612 198.00393014 -59.53125 199.36914062 C-59.62516187 202.6912729 -59.71084037 206.01340491 -59.7890625 209.3359375 C-79.70399847 209.94118395 -96.66628621 209.99973152 -112.0390625 195.5859375 C-122.72707292 184.206985 -125.25947505 171.830671 -125.22265625 156.59375 C-125.2278981 155.30838348 -125.23313995 154.02301697 -125.23854065 152.69869995 C-125.24740748 149.99418211 -125.24512376 147.28996056 -125.23510742 144.58544922 C-125.22363493 141.15750914 -125.24383427 137.73060198 -125.27302456 134.30279732 C-125.29602097 130.98306494 -125.28890919 127.66355952 -125.28515625 124.34375 C-125.29639023 123.13292755 -125.30762421 121.9221051 -125.31919861 120.67459106 C-125.20629414 106.65613527 -121.33133938 95.44388515 -111.7578125 85.15234375 C-104.40140367 78.10245195 -94.74959132 72.20320959 -84.32183838 72.21568298 C-82.98836113 72.21362099 -82.98836113 72.21362099 -81.62794495 72.21151733 C-80.6604985 72.21511261 -79.69305206 72.21870789 -78.69628906 72.22241211 C-77.67158005 72.22226608 -76.64687103 72.22212006 -75.59111023 72.2219696 C-72.20394779 72.22266629 -68.81684033 72.23044735 -65.4296875 72.23828125 C-63.08127879 72.24014629 -60.73286969 72.24156979 -58.38446045 72.24256897 C-52.20309373 72.24638734 -46.0217505 72.25621186 -39.84039307 72.26727295 C-33.53292153 72.27750166 -27.22544619 72.28206972 -20.91796875 72.28710938 C-8.54165634 72.2978347 3.83463862 72.314903 16.2109375 72.3359375 C16.2109375 70.0259375 16.2109375 67.7159375 16.2109375 65.3359375 C-6.5590625 65.3359375 -29.3290625 65.3359375 -52.7890625 65.3359375 C-52.7890625 28.36836071 -52.7890625 28.36836071 -39.5 13.83203125 C-33.90188101 8.43828803 -28.1033146 4.93400993 -20.7890625 2.3359375 C-19.86198486 1.99280518 -18.93490723 1.64967285 -17.97973633 1.29614258 C-12.13554022 -0.34325163 -6.01954448 0.01047273 0 0 Z " fill="#356C99" transform="translate(232.7890625,108.6640625)"/>
<path d="M0 0 C34.50729232 -1.00457911 34.50729232 -1.00457911 49 11 C49.63550781 11.50015625 50.27101563 12.0003125 50.92578125 12.515625 C59.54853122 20.0868201 64.39947718 32.46535277 65.19358826 43.75128174 C65.27923646 46.82932968 65.30340669 49.90122995 65.30078125 52.98046875 C65.30506638 54.11092117 65.3093515 55.2413736 65.31376648 56.40608215 C65.31948497 58.78869968 65.32002844 61.17133466 65.31567383 63.55395508 C65.31252461 67.1593276 65.33596837 70.7638699 65.36132812 74.36914062 C65.41517238 93.29576358 64.70228729 109.48212622 51.4375 124.3125 C40.96788177 134.06920648 27.60224366 137.33659974 13.70678711 137.22705078 C12.72036224 137.22734283 11.73393738 137.22763489 10.71762085 137.22793579 C7.48743607 137.22655284 4.25748777 137.21104062 1.02734375 137.1953125 C-1.2242368 137.19157869 -3.47581898 137.18873346 -5.72740173 137.18673706 C-11.63089547 137.1791296 -17.53428956 137.15950602 -23.43774414 137.1373291 C-29.47085218 137.11680833 -35.50397644 137.10772205 -41.53710938 137.09765625 C-53.3581165 137.07625731 -65.17904994 137.0421564 -77 137 C-77 139.31 -77 141.62 -77 144 C-54.23 144 -31.46 144 -8 144 C-8 181.12593985 -8 181.12593985 -21.703125 195.859375 C-33.0900719 206.47169966 -44.94798365 208.47599071 -60.02734375 208.43359375 C-61.46643822 208.4381674 -62.90553053 208.44347644 -64.34461975 208.44947815 C-67.3459669 208.45836057 -70.34704726 208.45604221 -73.34838867 208.44604492 C-77.16550226 208.43455953 -80.98169006 208.45478404 -84.79868221 208.48396206 C-87.76642047 208.50244241 -90.73394165 208.50200834 -93.7017231 208.49632454 C-95.10772564 208.49617277 -96.51374429 208.50209523 -97.91969109 208.51461601 C-112.96867318 208.62979564 -123.94175097 204.54560566 -135.125 194.5 C-142.89928799 186.44527678 -147.06215212 175.82354832 -147.19287109 164.74780273 C-147.20893402 163.50558456 -147.22499695 162.26336639 -147.24154663 160.98350525 C-147.25303989 159.63354182 -147.26364745 158.2835706 -147.2734375 156.93359375 C-147.27876118 156.24707293 -147.28408485 155.5605521 -147.28956985 154.85322762 C-147.31623771 151.21490729 -147.33562738 147.57662041 -147.35009766 143.93823242 C-147.36339147 140.94996218 -147.39116687 137.96238217 -147.43212891 134.97436523 C-147.4818755 131.34397264 -147.50626935 127.71420148 -147.51332474 124.08348274 C-147.51997039 122.71174378 -147.53501423 121.34001499 -147.55921555 119.96847343 C-147.78928128 106.13425486 -143.67986786 94.38745119 -134.26171875 84.1015625 C-122.4290132 72.88131583 -108.66144578 70.71426955 -93.015625 70.7265625 C-91.66956639 70.71797881 -90.32351619 70.70797152 -88.97747803 70.69662476 C-83.31022085 70.65082845 -77.64302236 70.62578874 -71.97558594 70.61914062 C-68.4895607 70.61406957 -65.00408089 70.58954651 -61.51824188 70.55381393 C-59.57717566 70.53951589 -57.6359886 70.54658417 -55.69488525 70.55435181 C-40.67350095 70.38986769 -26.83573265 65.62461521 -15.6875 55.3125 C-0.74798556 39.16167358 -0.27009805 20.79522116 0 0 Z " fill="#FECC3A" transform="translate(328,183)"/>
<path d="M0 0 C0.80373047 -0.020625 1.60746094 -0.04125 2.43554688 -0.0625 C7.49037363 -0.0955651 10.92617799 0.45808209 15.3125 3.25 C17.94729064 6.6033699 17.73919475 10.12528406 17.3125 14.25 C15.04470014 18.61761454 12.86901599 21.32613769 8.3125 23.25 C5.31989696 23.76388133 2.34170781 24.05861214 -0.6875 24.25 C-0.64625 25.52875 -0.605 26.8075 -0.5625 28.125 C-0.4921875 30.3046875 -0.4921875 30.3046875 -0.6875 32.25 C-2.6875 34.25 -2.6875 34.25 -5.75 34.4375 C-8.6875 34.25 -8.6875 34.25 -9.6875 33.25 C-9.7882812 30.88601532 -9.82723215 28.55188689 -9.8203125 26.1875 C-9.82126923 25.48101318 -9.82222595 24.77452637 -9.82321167 24.04663086 C-9.82389333 22.55029207 -9.82204005 21.05395033 -9.81787109 19.55761719 C-9.81252257 17.25969843 -9.81781651 14.96197514 -9.82421875 12.6640625 C-9.82355797 11.21354123 -9.8222768 9.76302009 -9.8203125 8.3125 C-9.82233673 7.6208374 -9.82436096 6.9291748 -9.82644653 6.21655273 C-9.78917755 -1.31916389 -6.64877459 0.04165246 0 0 Z " fill="#F9FBFC" transform="translate(149.6875,203.75)"/>
<path d="M0 0 C3.37616231 1.67772483 5.40847678 4.07413757 7.4375 7.25 C8.27186669 11.32912606 8.14362624 14.98638181 7 19 C4.33651679 22.29430818 1.30078943 25.62310878 -3.05078125 26.3359375 C-8.52825006 26.43053972 -11.77315572 25.82428768 -16 22 C-18.910372 17.634442 -19.6506249 14.20499921 -19 9 C-14.74389829 0.80306338 -8.92158719 -1.52737573 0 0 Z " fill="#FEFDFA" transform="translate(295,345)"/>
<path d="M0 0 C3.95895451 2.04601431 6.55156008 3.98436859 8.171875 8.2734375 C8.86979586 12.9844033 8.62742024 16.32730507 6.546875 20.6484375 C2.95362134 24.61992839 -0.02824318 26.04845227 -5.328125 26.7109375 C-10.47255484 26.06788377 -13.36584694 23.97942857 -16.703125 20.0859375 C-18.30998846 16.06877884 -18.49782607 12.53996005 -17.828125 8.2734375 C-14.44398827 1.24484584 -7.78996798 -3.09601292 0 0 Z " fill="#FBFCFD" transform="translate(215.828125,129.7265625)"/>
<path d="M0 0 C3.5625 0.1875 3.5625 0.1875 5.5625 2.1875 C5.9938523 4.17228443 6.33741843 6.17684566 6.625 8.1875 C7.14853718 12.32655115 7.14853718 12.32655115 8.5625 16.1875 C9.5525 16.1875 10.5425 16.1875 11.5625 16.1875 C13.18317825 12.94614351 12.95947553 9.39752928 13.18359375 5.81640625 C13.5625 3.1875 13.5625 3.1875 15.5625 0.1875 C18.625 -0.0625 18.625 -0.0625 21.5625 0.1875 C22.5625 1.1875 22.5625 1.1875 22.58203125 3.15625 C22.05240982 9.63162142 20.99311131 17.03368618 15.96484375 21.65625 C14.1092256 23.68244029 14.13835271 25.04096463 14 27.75 C13.77083333 31.97916667 13.77083333 31.97916667 11.5625 34.1875 C8.5 34.375 8.5 34.375 5.5625 34.1875 C4.5625 33.1875 4.5625 33.1875 4.46484375 30.90234375 C4.47644531 29.98582031 4.48804688 29.06929687 4.5 28.125 C4.50902344 27.20589844 4.51804688 26.28679687 4.52734375 25.33984375 C4.53894531 24.62957031 4.55054688 23.91929687 4.5625 23.1875 C3.93601563 22.90261719 3.30953125 22.61773437 2.6640625 22.32421875 C-1.16340668 20.25397055 -2.20662 16.83153368 -3.625 12.875 C-4.53365442 8.75110686 -4.65512605 5.3949369 -4.4375 1.1875 C-3.4375 0.1875 -3.4375 0.1875 0 0 Z " fill="#F7F9FB" transform="translate(185.4375,203.8125)"/>
<path d="M0 0 C2 1.625 2 1.625 3 4 C2.87988224 7.42335626 2.60726153 9.95416069 0.875 12.9375 C-2.22289358 14.69297303 -4.52844534 14.48723574 -8 14 C-10.5 11.9375 -10.5 11.9375 -12 9 C-12 5.19715329 -11.7968187 2.98069994 -9.375 0 C-5.88418213 -1.46981805 -3.60851044 -0.98413921 0 0 Z " fill="#635F51" transform="translate(229,278)"/>
<path d="M0 0 C0.99 0.33 1.98 0.66 3 1 C3.99 0.814375 4.98 0.62875 6 0.4375 C9 0 9 0 12 2 C12.66 1.34 13.32 0.68 14 0 C16.5 -0.25 16.5 -0.25 19 0 C21 2 21 2 21.1953125 5.0390625 C21.17210937 6.22242188 21.14890625 7.40578125 21.125 8.625 C21.10695313 9.81351562 21.08890625 11.00203125 21.0703125 12.2265625 C21.04710937 13.14179688 21.02390625 14.05703125 21 15 C20.34 15 19.68 15 19 15 C18.67 11.37 18.34 7.74 18 4 C16.35 4 14.7 4 13 4 C12.67 7.63 12.34 11.26 12 15 C11.01 15 10.02 15 9 15 C8.67 11.37 8.34 7.74 8 4 C6.35 4.33 4.7 4.66 3 5 C2.67 8.3 2.34 11.6 2 15 C1.01 15 0.02 15 -1 15 C-1.02685412 12.68756208 -1.04632841 10.3750373 -1.0625 8.0625 C-1.07410156 6.77472656 -1.08570313 5.48695313 -1.09765625 4.16015625 C-1 1 -1 1 0 0 Z " fill="#656051" transform="translate(270,277)"/>
<path d="M0 0 C0.99 0.33 1.98 0.66 3 1 C3.99 0.814375 4.98 0.62875 6 0.4375 C9 0 9 0 12 2 C12.66 1.34 13.32 0.68 14 0 C16.5 -0.25 16.5 -0.25 19 0 C21 2 21 2 21.1953125 5.0390625 C21.17210937 6.22242188 21.14890625 7.40578125 21.125 8.625 C21.10695313 9.81351562 21.08890625 11.00203125 21.0703125 12.2265625 C21.04710937 13.14179688 21.02390625 14.05703125 21 15 C20.34 15 19.68 15 19 15 C18.67 11.37 18.34 7.74 18 4 C16.35 4 14.7 4 13 4 C12.67 7.63 12.34 11.26 12 15 C11.01 15 10.02 15 9 15 C8.67 11.37 8.34 7.74 8 4 C6.35 4.33 4.7 4.66 3 5 C2.67 8.3 2.34 11.6 2 15 C1.01 15 0.02 15 -1 15 C-1.02685412 12.68756208 -1.04632841 10.3750373 -1.0625 8.0625 C-1.07410156 6.77472656 -1.08570313 5.48695313 -1.09765625 4.16015625 C-1 1 -1 1 0 0 Z " fill="#656051" transform="translate(240,277)"/>
<path d="M0 0 C0.99 0.66 1.98 1.32 3 2 C3 2.66 3 3.32 3 4 C2.31292969 3.89300781 1.62585938 3.78601563 0.91796875 3.67578125 C0.01691406 3.55589844 -0.88414062 3.43601562 -1.8125 3.3125 C-2.70582031 3.18488281 -3.59914062 3.05726563 -4.51953125 2.92578125 C-7.02185195 2.77753284 -7.02185195 2.77753284 -8.80078125 4.23046875 C-10.88422641 7.30473799 -10.53534011 10.43106595 -10 14 C-9.03882095 16.12870693 -9.03882095 16.12870693 -7 17 C-3.45705143 17.30152754 -0.39555034 17.04478472 3 16 C3 16.99 3 17.98 3 19 C-0.46015135 20.73007568 -4.21672555 20.4835273 -8 20 C-11.49890004 17.88608123 -12.70578686 16.88263941 -14 13 C-14.38887761 8.80012182 -14.45908323 6.70392762 -12.125 3.125 C-8.51806528 -0.48193472 -4.93258577 -0.5762823 0 0 Z " fill="#645F51" transform="translate(208,272)"/>
<path d="M0 0 C3 1 3 1 4.6875 4.375 C6 8 6 8 6 11 C6.66 11 7.32 11 8 11 C8.103125 10.113125 8.20625 9.22625 8.3125 8.3125 C9.01190702 4.9426298 10.08742511 2.82728462 12 0 C12.66 0.33 13.32 0.66 14 1 C11.83836487 7.93998648 9.1063786 14.43117569 6 21 C5.34 21 4.68 21 4 21 C4.0825 19.88625 4.165 18.7725 4.25 17.625 C4.28318582 12.97068945 2.77170523 9.39436192 0.875 5.19921875 C0 3 0 3 0 0 Z " fill="#676151" transform="translate(366,277)"/>
<path d="M0 0 C0.66 0 1.32 0 2 0 C2 0.66 2 1.32 2 2 C2.99 1.34 3.98 0.68 5 0 C7.76610122 -0.34576265 9.31716554 -0.47036103 11.64453125 1.1328125 C13.602686 3.83021299 13.29355662 5.89974464 13.1875 9.1875 C13.16042969 10.27417969 13.13335937 11.36085938 13.10546875 12.48046875 C13.07066406 13.31191406 13.03585937 14.14335937 13 15 C12.01 15 11.02 15 10 15 C9.67 11.37 9.34 7.74 9 4 C7.35 4 5.7 4 4 4 C2.33657163 5.66342837 2.63951903 7.7825709 2.4375 10.0625 C2.31181641 11.44115234 2.31181641 11.44115234 2.18359375 12.84765625 C2.12300781 13.55792969 2.06242187 14.26820313 2 15 C1.34 15 0.68 15 0 15 C0 10.05 0 5.1 0 0 Z " fill="#6E6650" transform="translate(321,277)"/>
<path d="M0 0 C0.66 0 1.32 0 2 0 C2.33 3.96 2.66 7.92 3 12 C6.465 11.505 6.465 11.505 10 11 C10 7.37 10 3.74 10 0 C10.66 0 11.32 0 12 0 C12 4.95 12 9.9 12 15 C10.68 15 9.36 15 8 15 C6.989375 15.061875 5.97875 15.12375 4.9375 15.1875 C2 15 2 15 0.33203125 13.83984375 C-1.51483982 11.28888694 -1.33220942 9.49073715 -1.25 6.375 C-1.23453125 5.39273437 -1.2190625 4.41046875 -1.203125 3.3984375 C-1 1 -1 1 0 0 Z " fill="#696350" transform="translate(300,277)"/>
<path d="M0 0 C2.5 0.25 2.5 0.25 4.5 2.25 C4.75 5.25 4.75 5.25 4.5 8.25 C3.84 8.91 3.18 9.57 2.5 10.25 C-0.625 9.875 -0.625 9.875 -3.5 9.25 C-4.125 5.875 -4.125 5.875 -4.5 2.25 C-2.5 0.25 -2.5 0.25 0 0 Z " fill="#F8C83A" transform="translate(224.5,279.75)"/>
<path d="M0 0 C2.33294775 -0.04241723 4.66702567 -0.04092937 7 0 C8 1 8 1 8.1875 3.9375 C8 7 8 7 6 9 C2.875 9.125 2.875 9.125 0 9 C0 6.03 0 3.06 0 0 Z " fill="#386F9B" transform="translate(149,211)"/>
<path d="M0 0 C0.33 0.66 0.66 1.32 1 2 C2.32 2 3.64 2 5 2 C5 2.99 5 3.98 5 5 C3.68 5 2.36 5 1 5 C1.06006078 6.45947705 1.1488689 7.91779272 1.25 9.375 C1.29640625 10.18710937 1.3428125 10.99921875 1.390625 11.8359375 C1.7922092 14.18838927 1.7922092 14.18838927 4.046875 15.2890625 C4.69140625 15.52367187 5.3359375 15.75828125 6 16 C5 17 5 17 2.5 17.125 C0 17 0 17 -1 16 C-1.07226502 14.14712498 -1.0838122 12.29166122 -1.0625 10.4375 C-1.05347656 9.42558594 -1.04445313 8.41367187 -1.03515625 7.37109375 C-1.02355469 6.58863281 -1.01195312 5.80617188 -1 5 C-1.99 5 -2.98 5 -4 5 C-2.25 1.125 -2.25 1.125 0 0 Z " fill="#645F51" transform="translate(355,275)"/>
<path d="M0 0 C1.84765625 0.33984375 1.84765625 0.33984375 4.0625 0.9375 C5.16271484 1.22947266 5.16271484 1.22947266 6.28515625 1.52734375 C7.13400391 1.76130859 7.13400391 1.76130859 8 2 C7.360625 2.309375 6.72125 2.61875 6.0625 2.9375 C4.06389179 3.8345163 4.06389179 3.8345163 3 5 C2.76712992 6.68183948 2.58735834 8.3712416 2.4375 10.0625 C2.31181641 11.44115234 2.31181641 11.44115234 2.18359375 12.84765625 C2.12300781 13.55792969 2.06242187 14.26820313 2 15 C1.01 15 0.02 15 -1 15 C-1.02685412 12.68756208 -1.04632841 10.3750373 -1.0625 8.0625 C-1.07410156 6.77472656 -1.08570313 5.48695313 -1.09765625 4.16015625 C-1 1 -1 1 0 0 Z " fill="#746B4E" transform="translate(270,277)"/>
<path d="M0 0 C1.84765625 0.33984375 1.84765625 0.33984375 4.0625 0.9375 C5.16271484 1.22947266 5.16271484 1.22947266 6.28515625 1.52734375 C7.13400391 1.76130859 7.13400391 1.76130859 8 2 C7.360625 2.309375 6.72125 2.61875 6.0625 2.9375 C4.06389179 3.8345163 4.06389179 3.8345163 3 5 C2.76712992 6.68183948 2.58735834 8.3712416 2.4375 10.0625 C2.31181641 11.44115234 2.31181641 11.44115234 2.18359375 12.84765625 C2.12300781 13.55792969 2.06242188 14.26820313 2 15 C1.01 15 0.02 15 -1 15 C-1.02685412 12.68756208 -1.04632841 10.3750373 -1.0625 8.0625 C-1.07410156 6.77472656 -1.08570313 5.48695313 -1.09765625 4.16015625 C-1 1 -1 1 0 0 Z " fill="#746B4E" transform="translate(240,277)"/>
<path d="M0 0 C1.9375 1.9375 1.9375 1.9375 3 4 C3 4.66 3 5.32 3 6 C2.34 6 1.68 6 1 6 C0.67 6.66 0.34 7.32 0 8 C-0.66 6.35 -1.32 4.7 -2 3 C-5.19902639 2.91113816 -7.92677456 3.08941469 -11 4 C-8.42407961 -1.70382372 -5.97292422 -1.36224587 0 0 Z " fill="#6D6650" transform="translate(229,278)"/>
<path d="M0 0 C0.66 0 1.32 0 2 0 C2 0.99 2 1.98 2 3 C2.66 3.33 3.32 3.66 4 4 C3.67 4.33 3.34 4.66 3 5 C2.76712992 6.68183948 2.58735834 8.3712416 2.4375 10.0625 C2.31181641 11.44115234 2.31181641 11.44115234 2.18359375 12.84765625 C2.12300781 13.55792969 2.06242187 14.26820313 2 15 C1.34 15 0.68 15 0 15 C0 10.05 0 5.1 0 0 Z " fill="#595853" transform="translate(321,277)"/>
<path d="M0 0 C0.66 0 1.32 0 2 0 C2 4.95 2 9.9 2 15 C1.34 15 0.68 15 0 15 C-0.66 13.68 -1.32 12.36 -2 11 C-1.34 11 -0.68 11 0 11 C0 7.37 0 3.74 0 0 Z " fill="#5B5952" transform="translate(310,277)"/>
</svg>
